<svg width="16" height="16" viewBox="0 0 16 16" fill="none" xmlns="http://www.w3.org/2000/svg">
<path fill-rule="evenodd" clip-rule="evenodd" d="M8.10769 2.5C6.13196 2.5 4.51676 4.04443 4.40378 5.9917L4.3901 6.22748L4.1476 6.22721C2.48459 6.22736 1.13623 7.57554 1.13623 9.23858C1.13623 10.698 2.17468 11.9155 3.55311 12.1913L3.56279 12.1933L3.57229 12.196C3.69631 12.2311 3.82745 12.2501 3.96342 12.2501H12.2523C12.3883 12.2501 12.5194 12.2311 12.6435 12.1959L12.653 12.1932L12.6627 12.1913C14.041 11.9154 15.0794 10.698 15.0794 9.23858C15.0794 7.57545 13.7312 6.22721 12.068 6.22721L11.8253 6.22771L11.8116 5.9917C11.6986 4.04443 10.0834 2.5 8.10769 2.5ZM3.92409 5.73421C4.16062 3.63297 5.94337 2 8.10769 2C10.272 2 12.0547 3.63297 12.2913 5.7342C14.1265 5.84934 15.5794 7.37429 15.5794 9.23858C15.5794 10.9375 14.3731 12.3542 12.7703 12.6796C12.6052 12.7256 12.4314 12.7501 12.2523 12.7501H3.96342C3.78434 12.7501 3.61057 12.7256 3.44547 12.6797C1.84266 12.3543 0.63623 10.9376 0.63623 9.23858C0.63623 7.37438 2.08896 5.84948 3.92409 5.73421Z" fill="#091A23" stroke="#091A23" stroke-width="0.5" stroke-linejoin="round"/>
<path fill-rule="evenodd" clip-rule="evenodd" d="M7.65224 7.73463C7.5837 7.90011 7.53784 8.07368 7.5156 8.25065C7.49839 8.38764 7.38807 8.5 7.25 8.5C7.11193 8.5 6.99871 8.3878 7.01249 8.25041C7.03684 8.00773 7.09662 7.76946 7.1903 7.54329C7.31594 7.23998 7.50009 6.96438 7.73223 6.73223C7.96438 6.50009 8.23998 6.31594 8.54329 6.1903C8.76946 6.09662 9.00773 6.03684 9.25041 6.01249C9.3878 5.99871 9.5 6.11193 9.5 6.25C9.5 6.38807 9.38764 6.49839 9.25065 6.51561C9.07368 6.53784 8.90011 6.5837 8.73463 6.65224C8.49198 6.75275 8.2715 6.90007 8.08579 7.08579C7.90007 7.2715 7.75275 7.49198 7.65224 7.73463Z" fill="#091A23" stroke="#091A23" stroke-width="0.5" stroke-linejoin="round"/>
</svg>
