<svg width="20" height="20" viewBox="0 0 20 20" fill="none" xmlns="http://www.w3.org/2000/svg">
<path fill-rule="evenodd" clip-rule="evenodd" d="M3 4C3 3.44772 3.44772 3 4 3H6C6.55228 3 7 3.44772 7 4V16C7 16.5523 6.55228 17 6 17H4C3.44772 17 3 16.5523 3 16V4ZM8 4C8 3.44772 8.44772 3 9 3H11C11.5523 3 12 3.44772 12 4V16C12 16.5523 11.5523 17 11 17H9C8.44772 17 8 16.5523 8 16V4ZM13 4C13 3.44772 13.4477 3 14 3H16C16.5523 3 17 3.44772 17 4V16C17 16.5523 16.5523 17 16 17H14C13.4477 17 13 16.5523 13 16V4ZM6 4V16H4V4H6ZM11 4V16H9V4H11ZM14 4V16H16V4H14Z" fill="#2D4754"/>
</svg>
