<svg width="20" height="20" viewBox="0 0 20 20" fill="none" xmlns="http://www.w3.org/2000/svg">
<path d="M15.853 7.14648L11.861 3.15149C11.7677 3.0579 11.6411 3.00504 11.509 3.00449L7.5 2.99548C7.36739 2.99548 7.24021 3.04816 7.14644 3.14193C7.05267 3.2357 7 3.36288 7 3.49548V6.00449H4.5C4.36739 6.00449 4.24021 6.05716 4.14644 6.15093C4.05267 6.2447 4 6.37188 4 6.50449V16.5045C4 16.6371 4.05267 16.7643 4.14644 16.858C4.24021 16.9518 4.36739 17.0045 4.5 17.0045H13.5C13.6326 17.0045 13.7598 16.9518 13.8535 16.858C13.9473 16.7643 14 16.6371 14 16.5045V14.0045H15.5C15.6326 14.0045 15.7598 13.9518 15.8535 13.858C15.9473 13.7643 16 13.6371 16 13.5045V7.50449C16.0005 7.43804 15.9878 7.37215 15.9625 7.31068C15.9373 7.24922 15.9001 7.1934 15.853 7.14648ZM14.263 7.00449H11.999L11.98 4.72249L14.263 7.00449ZM12.999 16.0045H4.99899V7.00449H6.99899V13.5045C6.99899 13.6371 7.05168 13.7643 7.14545 13.858C7.23921 13.9518 7.36638 14.0045 7.49899 14.0045H12.999V16.0045ZM7.99899 13.0045V4.00449H10.999L11.029 7.50449C11.029 7.63709 11.0817 7.76427 11.1754 7.85804C11.2692 7.95181 11.3964 8.00449 11.529 8.00449H14.999V13.0045H7.99899Z" fill="#2D4754"/>
</svg>
