<svg width="16" height="16" viewBox="0 0 16 16" fill="none" xmlns="http://www.w3.org/2000/svg">
<path d="M7.5992 3.35953L6.5208 4.44193C6.44543 4.51601 6.34381 4.55725 6.23814 4.55665C6.13246 4.55605 6.03132 4.51366 5.9568 4.43873C5.88181 4.36372 5.83968 4.262 5.83968 4.15593C5.83968 4.04987 5.88181 3.94814 5.9568 3.87313L7.7168 2.11313C7.79331 2.04072 7.89465 2.00037 8 2.00037C8.10534 2.00037 8.20668 2.04072 8.2832 2.11313L10.0432 3.87313C10.1182 3.94814 10.1603 4.04987 10.1603 4.15593C10.1603 4.262 10.1182 4.36372 10.0432 4.43873C9.96823 4.51351 9.86668 4.55552 9.7608 4.55554C9.70823 4.55564 9.65616 4.54536 9.60757 4.52532C9.55898 4.50528 9.51481 4.47585 9.4776 4.43873L8.3992 3.35953V6.39393C8.3992 6.50002 8.35705 6.60176 8.28204 6.67678C8.20702 6.75179 8.10528 6.79393 7.9992 6.79393C7.89311 6.79393 7.79137 6.75179 7.71635 6.67678C7.64134 6.60176 7.5992 6.50002 7.5992 6.39393V3.35953Z" fill="#091A23"/>
<path d="M8.39918 12.6315L9.47758 11.5523C9.5532 11.4782 9.65511 11.4371 9.76098 11.438C9.86685 11.4389 9.96804 11.4817 10.0424 11.5571C10.1174 11.6321 10.1595 11.7339 10.1595 11.8399C10.1595 11.946 10.1174 12.0477 10.0424 12.1227L8.28238 13.8827C8.24517 13.9199 8.201 13.9493 8.15241 13.9693C8.10382 13.9894 8.05175 13.9996 7.99918 13.9995C7.94632 13.9994 7.894 13.9888 7.84525 13.9684C7.7965 13.9479 7.7523 13.918 7.71518 13.8803L5.95518 12.1203C5.8802 12.0453 5.83807 11.9436 5.83807 11.8375C5.83807 11.7315 5.8802 11.6297 5.95518 11.5547C6.0302 11.4797 6.13192 11.4376 6.23798 11.4376C6.34405 11.4376 6.44577 11.4797 6.52078 11.5547L7.59918 12.6339V10.3995C7.59918 10.2934 7.64133 10.1917 7.71634 10.1167C7.79136 10.0417 7.8931 9.99954 7.99918 9.99954C8.10527 9.99954 8.20701 10.0417 8.28203 10.1167C8.35704 10.1917 8.39918 10.2934 8.39918 10.3995V12.6315Z" fill="#091A23"/>
<path d="M13.8824 8.28274C13.9197 8.24559 13.9492 8.20145 13.9694 8.15286C13.9895 8.10426 13.9999 8.05216 13.9999 7.99955C13.9999 7.94693 13.9895 7.89484 13.9694 7.84624C13.9492 7.79764 13.9197 7.75351 13.8824 7.71635L12.1224 5.95635C12.0474 5.88136 11.9457 5.83923 11.8396 5.83923C11.7335 5.83923 11.6318 5.88136 11.5568 5.95635C11.4818 6.03136 11.4397 6.13308 11.4397 6.23915C11.4397 6.34521 11.4818 6.44694 11.5568 6.52195L12.6336 7.59955H10.3992C10.2931 7.59955 10.1914 7.64169 10.1164 7.7167C10.0413 7.79172 9.9992 7.89346 9.9992 7.99955C9.9992 8.10563 10.0413 8.20738 10.1164 8.28239C10.1914 8.35741 10.2931 8.39955 10.3992 8.39955H12.6336L11.5552 9.47875C11.4802 9.55376 11.4381 9.65548 11.4381 9.76155C11.4381 9.86761 11.4802 9.96934 11.5552 10.0443C11.6302 10.1191 11.7317 10.1611 11.8376 10.1612C11.8902 10.1612 11.9422 10.151 11.9908 10.1309C12.0394 10.1109 12.0836 10.0815 12.1208 10.0443L13.8824 8.28274Z" fill="#091A23"/>
<path d="M5.88204 7.71669C5.95705 7.79171 5.9992 7.89345 5.9992 7.99954C5.9992 8.10562 5.95705 8.20736 5.88204 8.28238C5.80702 8.35739 5.70528 8.39954 5.5992 8.39954H3.3648L4.4432 9.47554C4.51819 9.55055 4.56031 9.65227 4.56031 9.75834C4.56031 9.8644 4.51819 9.96613 4.4432 10.0411C4.36823 10.1159 4.26668 10.1579 4.1608 10.1579C4.10823 10.158 4.05617 10.1478 4.00757 10.1277C3.95898 10.1077 3.91481 10.0783 3.8776 10.0411L2.1176 8.28113C2.08035 8.24398 2.05079 8.19984 2.03063 8.15124C2.01046 8.10265 2.00008 8.05055 2.00008 7.99794C2.00008 7.94532 2.01046 7.89322 2.03063 7.84463C2.05079 7.79603 2.08035 7.75189 2.1176 7.71473L3.8776 5.95474C3.95261 5.87975 4.05433 5.83762 4.1604 5.83762C4.26646 5.83762 4.36819 5.87975 4.4432 5.95474C4.51819 6.02975 4.56031 6.13147 4.56031 6.23754C4.56031 6.3436 4.51819 6.44533 4.4432 6.52034L3.3648 7.59954H5.5992C5.70528 7.59954 5.80702 7.64168 5.88204 7.71669Z" fill="#091A23"/>
</svg>
