<svg width="16" height="16" viewBox="0 0 16 16" fill="none" xmlns="http://www.w3.org/2000/svg">
<path d="M2.4 1.59998C1.95817 1.59998 1.6 1.95815 1.6 2.39998V11.2C1.6 11.6418 1.95817 12 2.4 12H5.6V11.2H2.4V2.39998H11.2V5.59998H12V2.39998C12 1.95815 11.6418 1.59998 11.2 1.59998H2.4Z" fill="#091A23"/>
<path fill-rule="evenodd" clip-rule="evenodd" d="M12.8 9.59998C12.8 10.3395 12.5492 11.0204 12.1279 11.5622L13.8828 13.3171C14.0391 13.4733 14.0391 13.7266 13.8828 13.8828C13.7266 14.039 13.4734 14.039 13.3172 13.8828L11.5623 12.1279C11.0204 12.5491 10.3395 12.8 9.6 12.8C7.83269 12.8 6.4 11.3673 6.4 9.59998C6.4 7.83266 7.83269 6.39998 9.6 6.39998C11.3673 6.39998 12.8 7.83266 12.8 9.59998ZM12 9.59998C12 10.1183 11.8357 10.5983 11.5563 10.9906C11.5454 11.0058 11.5344 11.021 11.5232 11.0359C11.3738 11.2357 11.194 11.4115 10.9906 11.5563C10.5983 11.8357 10.1183 12 9.6 12C8.27452 12 7.2 10.9255 7.2 9.59998C7.2 8.27449 8.27452 7.19998 9.6 7.19998C10.9255 7.19998 12 8.27449 12 9.59998Z" fill="#091A23"/>
<path d="M4.4 3.99998C4.17909 3.99998 4 4.17906 4 4.39998C4 4.62089 4.17909 4.79998 4.4 4.79998H9.2C9.42091 4.79998 9.6 4.62089 9.6 4.39998C9.6 4.17906 9.42091 3.99998 9.2 3.99998H4.4Z" fill="#091A23"/>
<path d="M4.4 6.39998C4.17909 6.39998 4 6.57906 4 6.79998C4 7.02089 4.17909 7.19998 4.4 7.19998H6C6.22091 7.19998 6.4 7.02089 6.4 6.79998C6.4 6.57906 6.22091 6.39998 6 6.39998H4.4Z" fill="#091A23"/>
<path d="M4 9.19998C4 8.97906 4.17909 8.79998 4.4 8.79998H5.2C5.42091 8.79998 5.6 8.97906 5.6 9.19998C5.6 9.42089 5.42091 9.59998 5.2 9.59998H4.4C4.17909 9.59998 4 9.42089 4 9.19998Z" fill="#091A23"/>
</svg>
