<svg width="16" height="16" viewBox="0 0 16 16" fill="none" xmlns="http://www.w3.org/2000/svg">
<path d="M14.4758 5.18165C14.385 5.12696 14.2761 5.11057 14.1732 5.13607C14.0703 5.16158 13.9818 5.22689 13.927 5.31765L12.9438 6.95285C12.6688 5.77335 12.0033 4.72135 11.0553 3.96754C10.1074 3.21373 8.93252 2.80232 7.72138 2.80005C6.93224 2.7992 6.15267 2.97283 5.43847 3.30849C4.72428 3.64415 4.09312 4.13355 3.59018 4.74165C3.5234 4.82305 3.49141 4.9275 3.50114 5.03233C3.51088 5.13717 3.56156 5.23394 3.64218 5.30165C3.72368 5.36834 3.82819 5.40019 3.93303 5.3903C4.03787 5.38042 4.13458 5.32959 4.20218 5.24885C4.63087 4.73106 5.16873 4.31445 5.77726 4.02885C6.3858 3.74326 7.04996 3.59574 7.72218 3.59685C8.79666 3.60058 9.83531 3.98361 10.6549 4.6784C11.4746 5.37318 12.0225 6.33508 12.2022 7.39445L10.3366 6.27445C10.2457 6.21984 10.1368 6.20357 10.0339 6.22922C9.93094 6.25487 9.84243 6.32035 9.78778 6.41125C9.73316 6.50217 9.71689 6.61107 9.74255 6.71398C9.7682 6.81689 9.83368 6.9054 9.92458 6.96005L12.4846 8.49845C12.5469 8.53579 12.6183 8.55542 12.691 8.55525C12.7236 8.55513 12.756 8.55137 12.7878 8.54405C12.8907 8.51799 12.9792 8.45247 13.0342 8.36165L14.6174 5.72885C14.6711 5.63749 14.6863 5.52856 14.6598 5.42596C14.6332 5.32337 14.5671 5.2355 14.4758 5.18165Z" fill="#091A23"/>
<path d="M11.799 10.748C11.3703 11.2658 10.8324 11.6825 10.2239 11.968C9.61535 12.2536 8.9512 12.4012 8.27898 12.4C7.20449 12.3963 6.16584 12.0133 5.34621 11.3185C4.52657 10.6237 3.97862 9.66181 3.79898 8.60245L5.66458 9.72245C5.7555 9.77707 5.86439 9.79334 5.9673 9.76768C6.07021 9.74203 6.15873 9.67655 6.21338 9.58565C6.268 9.49473 6.28426 9.38584 6.25861 9.28292C6.23295 9.18001 6.16748 9.09149 6.07658 9.03685L3.51658 7.49925C3.42566 7.44463 3.31676 7.42836 3.21385 7.45402C3.11093 7.47967 3.02242 7.54514 2.96778 7.63605L1.38457 10.268C1.32996 10.359 1.31369 10.4679 1.33935 10.5708C1.365 10.6737 1.43047 10.7622 1.52138 10.8169C1.58343 10.8543 1.65449 10.8742 1.72698 10.8744C1.79603 10.8745 1.86392 10.8568 1.92406 10.8228C1.9842 10.7889 2.03455 10.74 2.07018 10.6808L3.05418 9.04565C3.32978 10.2262 3.99624 11.2789 4.9454 12.0331C5.89456 12.7872 7.0707 13.1984 8.28297 13.2C9.07211 13.2009 9.85168 13.0273 10.5659 12.6916C11.2801 12.356 11.9112 11.8666 12.4142 11.2584C12.481 11.177 12.5129 11.0726 12.5032 10.9678C12.4935 10.8629 12.4428 10.7662 12.3622 10.6984C12.2809 10.6304 12.1759 10.5974 12.0703 10.6067C11.9647 10.616 11.8671 10.6668 11.799 10.748Z" fill="#091A23"/>
</svg>
