<svg width="16" height="16" viewBox="0 0 16 16" fill="none" xmlns="http://www.w3.org/2000/svg">
<path fill-rule="evenodd" clip-rule="evenodd" d="M7.87351 1.6205C7.95562 1.59313 8.04438 1.59313 8.12649 1.6205L14.1265 3.6205C14.2898 3.67495 14.4 3.8278 14.4 3.99998C14.4 4.17215 14.2898 4.325 14.1265 4.37945L11.2469 5.3393C11.5526 5.79862 11.7585 6.31955 11.8486 6.86844C11.971 7.61487 11.8737 8.38079 11.5686 9.07292C11.2635 9.76505 10.7637 10.3535 10.1301 10.7666C10.049 10.8195 9.96626 10.8692 9.88192 10.9156C11.1105 11.3468 12.125 12.1923 12.8351 13.2815C12.9558 13.4666 12.9036 13.7144 12.7185 13.835C12.5335 13.9557 12.2856 13.9035 12.165 13.7184C11.2492 12.3139 9.78088 11.4 8.00005 11.4C6.21921 11.4 4.75087 12.3139 3.83512 13.7184C3.71446 13.9035 3.46664 13.9557 3.28158 13.835C3.09653 13.7144 3.04432 13.4666 3.16497 13.2815C3.8751 12.1923 4.88953 11.3468 6.11812 10.9157C6.03377 10.8692 5.95097 10.8195 5.86991 10.7666C5.2363 10.3535 4.7365 9.76505 4.43138 9.07292C4.12626 8.38079 4.029 7.61487 4.15143 6.86844C4.24147 6.31955 4.44745 5.79862 4.75307 5.3393L2.4 4.55495V8.99998C2.4 9.22089 2.22091 9.39998 2 9.39998C1.77909 9.39998 1.6 9.22089 1.6 8.99998V3.99998C1.6 3.89849 1.6378 3.80583 1.70008 3.7353C1.7189 3.71396 1.74004 3.69458 1.7632 3.67757C1.79884 3.65135 1.83899 3.63089 1.88226 3.61759L7.87351 1.6205ZM5.5505 4.76184C5.5455 4.76006 5.54047 4.75838 5.53542 4.75681L3.26491 3.99998L8 2.42161L12.7351 3.99998L10.4645 4.75683C10.4595 4.75839 10.4545 4.76005 10.4496 4.76182L8 5.57834L5.5505 4.76184ZM5.5472 5.60401C5.23336 6.01007 5.02439 6.48887 4.94088 6.99794C4.84356 7.59125 4.92087 8.20006 5.1634 8.75021C5.40593 9.30037 5.80321 9.76812 6.30685 10.0965C6.81049 10.4249 7.39876 10.5997 8 10.5997C8.60124 10.5997 9.18951 10.4249 9.69315 10.0965C10.1968 9.76812 10.5941 9.30037 10.8366 8.75021C11.0791 8.20006 11.1564 7.59125 11.0591 6.99794C10.9756 6.48887 10.7666 6.01007 10.4528 5.60401L8.12649 6.37945C8.04438 6.40682 7.95562 6.40682 7.87351 6.37945L5.5472 5.60401Z" fill="#091A23"/>
</svg>
